<?xml version="1.0" encoding="UTF-8" standalone="no"?>
<!-- Created with Inkscape (http://www.inkscape.org/) -->

<svg
   width="118.64973mm"
   height="74.943748mm"
   viewBox="0 0 118.64973 74.943748"
   version="1.1"
   id="svg5"
   inkscape:version="1.2.1 (9c6d41e410, 2022-07-14, custom)"
   sodipodi:docname="logo.svg"
   xmlns:inkscape="http://www.inkscape.org/namespaces/inkscape"
   xmlns:sodipodi="http://sodipodi.sourceforge.net/DTD/sodipodi-0.dtd"
   xmlns="http://www.w3.org/2000/svg"
   xmlns:svg="http://www.w3.org/2000/svg">
  <sodipodi:namedview
     id="namedview7"
     pagecolor="#ffffff"
     bordercolor="#000000"
     borderopacity="0.25"
     inkscape:showpageshadow="2"
     inkscape:pageopacity="0.0"
     inkscape:pagecheckerboard="0"
     inkscape:deskcolor="#d1d1d1"
     inkscape:document-units="mm"
     showgrid="false"
     inkscape:zoom="1.6819304"
     inkscape:cx="244.06479"
     inkscape:cy="490.80509"
     inkscape:window-width="2560"
     inkscape:window-height="1568"
     inkscape:window-x="0"
     inkscape:window-y="32"
     inkscape:window-maximized="1"
     inkscape:current-layer="layer1" />
  <defs
     id="defs2" />
  <g
     inkscape:label="Layer 1"
     inkscape:groupmode="layer"
     id="layer1"
     transform="translate(-13.58823,-61.5474)">
    <path
       id="path3810"
       style="fill:#ffffff;fill-opacity:1;stroke:#000000;stroke-width:0.264583;stroke-opacity:1"
       d="m 131.87774,87.279944 c -0.23482,0.02306 -0.48381,0.04605 -1.35651,0.137976 -1.16162,0.122356 -2.84101,0.305372 -4.91133,0.547253 -1.03515,0.120941 -2.16783,0.256402 -3.38274,0.406694 -1.2149,0.150292 -2.51165,0.315254 -3.87469,0.494543 -1.36304,0.17929 -2.79254,0.372911 -4.27209,0.580843 -1.47956,0.207933 -3.00942,0.430405 -4.57389,0.666626 -1.56446,0.236223 -3.16335,0.486183 -4.7811,0.750342 -1.61776,0.264159 -3.25433,0.542316 -4.893758,0.834058 -1.639424,0.291742 -3.281846,0.597252 -4.911328,0.916223 -0.81474,0.159485 -1.626083,0.322116 -2.432409,0.488342 -0.806327,0.166227 -1.607443,0.33609 -2.401404,0.509013 -0.793961,0.172923 -1.580868,0.349075 -2.358512,0.52865 -0.777644,0.179575 -1.546362,0.36262 -2.303736,0.548804 -0.757374,0.186183 -1.503404,0.375693 -2.236556,0.56844 -0.733152,0.192747 -1.453545,0.388811 -2.158524,0.588078 -0.704979,0.199268 -1.394721,0.401456 -2.067574,0.607198 -0.672854,0.205744 -1.32848,0.414661 -1.965255,0.626835 -0.636777,0.212174 -1.25482,0.427911 -1.851567,0.646473 -0.596746,0.218561 -1.172194,0.440172 -1.724959,0.665075 -2.211061,0.899618 -4.693206,1.92739 -7.354073,3.03909 -2.660867,1.1117 -5.500517,2.30708 -8.427909,3.54242 -2.927393,1.23533 -5.942307,2.51065 -8.952942,3.78117 -3.010636,1.27051 -6.017024,2.53651 -8.927621,3.75377 -2.910597,1.21726 -5.725701,2.38574 -8.352978,3.46129 -1.31364,0.53778 -2.579956,1.05213 -3.7884,1.53789 -1.208443,0.48577 -2.358728,0.94311 -3.439066,1.36581 -1.080339,0.4227 -2.091165,0.81104 -3.020488,1.15962 -0.929323,0.34858 -1.777264,0.65747 -2.532662,0.92087 -0.377698,0.1317 -0.732029,0.25186 -1.06195,0.36019 -0.0076,0.003 -0.01357,0.004 -0.02119,0.007 4.28122,10.45446 12.36818,17.29273 25.127149,14.35365 21.076537,-4.85506 52.908952,-16.72612 72.453982,-30.1191 l -11.06755,-6.549984 9.24027,0.164848 0.28112,1.429366 1.09864,-1.0821 6.82542,1.233 c 5.32178,-4.460727 9.05134,-9.013987 10.37818,-13.469979 z" />
    <path
       id="path13095"
       style="fill:#042940;fill-opacity:1;stroke-width:0.264583"
       d="m 71.136226,61.548181 c -22.935535,0.0537 -43.481066,2.85409 -43.481066,2.85409 -12.997846,4.72358 -18.2832554,36.861069 -10.289812,56.380539 0.0076,-0.002 0.01354,-0.004 0.02119,-0.007 0.329922,-0.10833 0.684251,-0.22848 1.06195,-0.36018 0.755398,-0.2634 1.603338,-0.5723 2.532662,-0.92088 0.929324,-0.34858 1.940148,-0.73692 3.020488,-1.15962 1.080339,-0.4227 2.230621,-0.88004 3.439066,-1.36581 1.208445,-0.48576 2.474759,-1.00011 3.7884,-1.53789 2.62728,-1.07555 5.442378,-2.24402 8.352978,-3.46128 2.9106,-1.21726 5.916982,-2.48326 8.927621,-3.75378 3.010638,-1.27052 6.025546,-2.54583 8.952941,-3.78116 2.927395,-1.23534 5.76704,-2.43072 8.42791,-3.54242 2.66087,-1.111703 5.14301,-2.139476 7.354073,-3.039095 0.552766,-0.224904 1.128212,-0.446513 1.724959,-0.665075 0.596747,-0.218562 1.21479,-0.434298 1.851567,-0.646472 0.636776,-0.212175 1.2924,-0.421092 1.965254,-0.626836 0.672854,-0.205743 1.362595,-0.40793 2.067574,-0.607198 0.70498,-0.199267 1.425372,-0.39533 2.158525,-0.588077 0.733153,-0.192748 1.479181,-0.382258 2.236556,-0.568441 0.757375,-0.186184 1.526091,-0.369229 2.303735,-0.548804 0.777645,-0.179575 1.564551,-0.355727 2.358513,-0.52865 0.793962,-0.172923 1.595076,-0.342786 2.401404,-0.509013 0.806327,-0.166226 1.617668,-0.328857 2.432409,-0.488342 1.629483,-0.318971 3.271902,-0.624481 4.911328,-0.916223 1.639429,-0.291742 3.275999,-0.569899 4.893759,-0.834058 1.61775,-0.264159 3.21663,-0.514119 4.7811,-0.750342 1.56447,-0.236222 3.09432,-0.458692 4.57388,-0.666625 1.47956,-0.207933 2.90905,-0.401554 4.27209,-0.580844 1.36305,-0.179289 2.65979,-0.344251 3.8747,-0.494543 1.21491,-0.150292 2.34758,-0.285753 3.38274,-0.406694 2.07032,-0.241882 3.74971,-0.424897 4.91133,-0.547253 0.8727,-0.09192 1.12169,-0.114914 1.35651,-0.137976 1.18474,-3.978781 0.4606,-7.879867 -2.74712,-11.567253 C 119.39708,64.187616 94.071762,61.494481 71.136226,61.548181 Z" />
    <g
       id="g14077"
       transform="rotate(-20.55747,48.987456,33.905663)">
      <path
         style="fill:none;fill-opacity:1;stroke:#ffffff;stroke-width:0.264999;stroke-dasharray:none;stroke-opacity:1"
         d="m 35.168303,84.713544 c 0,0 -3.529607,6.354344 0.914901,12.892974"
         id="path13892" />
      <path
         style="fill:none;fill-opacity:1;stroke:#ffffff;stroke-width:0.264999;stroke-dasharray:none;stroke-opacity:1"
         d="m 28.461134,84.713551 c 0,0 -3.529607,6.35433 0.914901,12.89296"
         id="path13892-7" />
      <path
         style="fill:none;fill-opacity:1;stroke:#ffffff;stroke-width:0.264999;stroke-dasharray:none;stroke-opacity:1"
         d="m 21.753965,84.713543 c 0,0 -3.529607,6.354346 0.914901,12.892976"
         id="path13892-5" />
    </g>
    <ellipse
       style="fill:#dbf227;fill-opacity:1;stroke:none;stroke-width:0.264999;stroke-dasharray:none;stroke-opacity:1"
       id="path14142"
       cx="81.173134"
       cy="96.052155"
       rx="4.5315914"
       ry="2.714426"
       transform="rotate(-8.7738249)" />
  </g>
</svg>
