<?xml version="1.0" encoding="UTF-8" standalone="no"?>
<!-- Created with Inkscape (http://www.inkscape.org/) -->

<svg
   width="210mm"
   height="297mm"
   viewBox="0 0 210 297"
   version="1.1"
   id="svg5"
   inkscape:version="1.2.1 (9c6d41e410, 2022-07-14, custom)"
   sodipodi:docname="logo.svg"
   xmlns:inkscape="http://www.inkscape.org/namespaces/inkscape"
   xmlns:sodipodi="http://sodipodi.sourceforge.net/DTD/sodipodi-0.dtd"
   xmlns="http://www.w3.org/2000/svg"
   xmlns:svg="http://www.w3.org/2000/svg">
  <sodipodi:namedview
     id="namedview7"
     pagecolor="#ffffff"
     bordercolor="#000000"
     borderopacity="0.25"
     inkscape:showpageshadow="2"
     inkscape:pageopacity="0.0"
     inkscape:pagecheckerboard="0"
     inkscape:deskcolor="#d1d1d1"
     inkscape:document-units="mm"
     showgrid="false"
     inkscape:zoom="1.6819304"
     inkscape:cx="227.41726"
     inkscape:cy="492.58875"
     inkscape:window-width="1259"
     inkscape:window-height="1542"
     inkscape:window-x="12"
     inkscape:window-y="44"
     inkscape:window-maximized="1"
     inkscape:current-layer="layer1" />
  <defs
     id="defs2" />
  <g
     inkscape:label="Layer 1"
     inkscape:groupmode="layer"
     id="layer1">
    <path
       id="path3810"
       style="fill:#ffffff;fill-opacity:1;stroke-width:0.264583;stroke:#000000;stroke-opacity:1"
       d="M 131.87774 87.279944 C 131.64292 87.303004 131.39393 87.325994 130.52123 87.41792 C 129.35961 87.540276 127.68022 87.723292 125.6099 87.965173 C 124.57475 88.086114 123.44207 88.221575 122.22716 88.371867 C 121.01226 88.522159 119.71551 88.687121 118.35247 88.86641 C 116.98943 89.0457 115.55993 89.239321 114.08038 89.447253 C 112.60082 89.655186 111.07096 89.877658 109.50649 90.113879 C 107.94203 90.350102 106.34314 90.600062 104.72539 90.864221 C 103.10763 91.12838 101.47106 91.406537 99.831632 91.698279 C 98.192208 91.990021 96.549786 92.295531 94.920304 92.614502 C 94.105564 92.773987 93.294221 92.936618 92.487895 93.102844 C 91.681568 93.269071 90.880452 93.438934 90.086491 93.611857 C 89.29253 93.78478 88.505623 93.960932 87.727979 94.140507 C 86.950335 94.320082 86.181617 94.503127 85.424243 94.689311 C 84.666869 94.875494 83.920839 95.065004 83.187687 95.257751 C 82.454535 95.450498 81.734142 95.646562 81.029163 95.845829 C 80.324184 96.045097 79.634442 96.247285 78.961589 96.453027 C 78.288735 96.658771 77.633109 96.867688 76.996334 97.079862 C 76.359557 97.292036 75.741514 97.507773 75.144767 97.726335 C 74.548021 97.944896 73.972573 98.166507 73.419808 98.39141 C 71.208747 99.291028 68.726602 100.3188 66.065735 101.4305 C 63.404868 102.5422 60.565218 103.73758 57.637826 104.97292 C 54.710433 106.20825 51.695519 107.48357 48.684884 108.75409 C 45.674248 110.0246 42.66786 111.2906 39.757263 112.50786 C 36.846666 113.72512 34.031562 114.8936 31.404285 115.96915 C 30.090645 116.50693 28.824329 117.02128 27.615885 117.50704 C 26.407442 117.99281 25.257157 118.45015 24.176819 118.87285 C 23.09648 119.29555 22.085654 119.68389 21.156331 120.03247 C 20.227008 120.38105 19.379067 120.68994 18.623669 120.95334 C 18.245971 121.08504 17.89164 121.2052 17.561719 121.31353 C 17.554119 121.31653 17.548151 121.31776 17.540531 121.32076 C 21.821751 131.77522 29.908711 138.61349 42.66768 135.67441 C 63.744217 130.81935 95.576632 118.94829 115.12166 105.55531 L 104.05411 99.005326 L 113.29438 99.170174 L 113.5755 100.59954 L 114.67414 99.51744 L 121.49956 100.75044 C 126.82134 96.289713 130.5509 91.736453 131.87774 87.280461 L 131.87774 87.279944 z "
       inkscape:export-filename="logo-export.svg"
       inkscape:export-xdpi="96"
       inkscape:export-ydpi="96" />
    <path
       id="path13095"
       style="fill:#042940;fill-opacity:1;stroke-width:0.264583"
       d="M 71.136226 61.548181 C 48.200691 61.601881 27.65516 64.402271 27.65516 64.402271 C 14.657314 69.125851 9.3719046 101.26334 17.365348 120.78281 C 17.372968 120.78031 17.378889 120.7786 17.386536 120.77609 C 17.716458 120.66776 18.070787 120.54761 18.448486 120.41591 C 19.203884 120.15251 20.051824 119.84361 20.981148 119.49503 C 21.910472 119.14645 22.921296 118.75811 24.001636 118.33541 C 25.081975 117.91271 26.232257 117.45537 27.440702 116.9696 C 28.649147 116.48384 29.915461 115.96949 31.229102 115.43171 C 33.856382 114.35616 36.67148 113.18769 39.58208 111.97043 C 42.49268 110.75317 45.499062 109.48717 48.509701 108.21665 C 51.520339 106.94613 54.535247 105.67082 57.462642 104.43549 C 60.390037 103.20015 63.229682 102.00477 65.890552 100.89307 C 68.551422 99.781367 71.033562 98.753594 73.244625 97.853975 C 73.797391 97.629071 74.372837 97.407462 74.969584 97.1889 C 75.566331 96.970338 76.184374 96.754602 76.821151 96.542428 C 77.457927 96.330253 78.113551 96.121336 78.786405 95.915592 C 79.459259 95.709849 80.149 95.507662 80.853979 95.308394 C 81.558959 95.109127 82.279351 94.913064 83.012504 94.720317 C 83.745657 94.527569 84.491685 94.338059 85.24906 94.151876 C 86.006435 93.965692 86.775151 93.782647 87.552795 93.603072 C 88.33044 93.423497 89.117346 93.247345 89.911308 93.074422 C 90.70527 92.901499 91.506384 92.731636 92.312712 92.565409 C 93.119039 92.399183 93.93038 92.236552 94.745121 92.077067 C 96.374604 91.758096 98.017023 91.452586 99.656449 91.160844 C 101.29588 90.869102 102.93245 90.590945 104.55021 90.326786 C 106.16796 90.062627 107.76684 89.812667 109.33131 89.576444 C 110.89578 89.340222 112.42563 89.117752 113.90519 88.909819 C 115.38475 88.701886 116.81424 88.508265 118.17728 88.328975 C 119.54033 88.149686 120.83707 87.984724 122.05198 87.834432 C 123.26689 87.68414 124.39956 87.548679 125.43472 87.427738 C 127.50504 87.185856 129.18443 87.002841 130.34605 86.880485 C 131.21875 86.788562 131.46774 86.765571 131.70256 86.742509 C 132.8873 82.763728 132.16316 78.862642 128.95544 75.175256 C 119.39708 64.187616 94.071762 61.494481 71.136226 61.548181 z " />
    <path
       style="fill:none;fill-opacity:1;stroke-width:0.265;stroke-dasharray:none"
       d="M 45.391477,175.23296 C 134.27806,131.13991 146.25344,137.60082 146.25344,137.60082"
       id="path11418" />
    <g
       id="g14077"
       transform="rotate(-20.55747,48.987456,33.905663)">
      <path
         style="fill:none;fill-opacity:1;stroke:#ffffff;stroke-width:0.264999;stroke-dasharray:none;stroke-opacity:1"
         d="m 35.168303,84.713544 c 0,0 -3.529607,6.354344 0.914901,12.892974"
         id="path13892" />
      <path
         style="fill:none;fill-opacity:1;stroke:#ffffff;stroke-width:0.264999;stroke-dasharray:none;stroke-opacity:1"
         d="m 28.461134,84.713551 c 0,0 -3.529607,6.35433 0.914901,12.89296"
         id="path13892-7" />
      <path
         style="fill:none;fill-opacity:1;stroke:#ffffff;stroke-width:0.264999;stroke-dasharray:none;stroke-opacity:1"
         d="m 21.753965,84.713543 c 0,0 -3.529607,6.354346 0.914901,12.892976"
         id="path13892-5" />
    </g>
    <ellipse
       style="fill:#dbf227;fill-opacity:1;stroke:none;stroke-width:0.264999;stroke-dasharray:none;stroke-opacity:1"
       id="path14142"
       cx="81.173134"
       cy="96.052155"
       rx="4.5315914"
       ry="2.714426"
       transform="rotate(-8.7738249)" />
  </g>
</svg>
